<svg xmlns="http://www.w3.org/2000/svg" viewBox="0 0 171.19 127.1"><defs><style>.cls-1{fill:#282f3a}.cls-2{fill:#2c333d}.cls-3,.cls-6{fill:#fff}.cls-3,.cls-4{stroke-miterlimit:10}.cls-3{stroke:#3c4553;stroke-width:1.5px}.cls-4{fill:none;stroke:#d0d8e2}.cls-5{fill:#d0d8e2}.cls-7{fill:#edf2f7}.cls-8{fill:#2eea8a}.cls-9{fill:#3c4553}.cls-10{fill:#7a8993}.cls-11{fill:#b4c1cc}</style></defs><g id="Ebene_2" data-name="Ebene 2"><g id="Ebene_5" data-name="Ebene 5"><circle cx="64.88" cy="3.18" r=".8" class="cls-1"/><rect width="15.77" height="23.57" x="61.52" y="89.95" class="cls-2"/><rect width="137.32" height="89.2" x=".75" y=".75" class="cls-3" rx="2.53"/><rect width="85.43" height="50.16" x="26.78" y="18.5" class="cls-4" rx="1.59"/><path d="M28,18.46h82.9a1.27,1.27,0,0,1,1.27,1.27v7.36a0,0,0,0,1,0,0H26.78a0,0,0,0,1,0,0V19.72A1.27,1.27,0,0,1,28,18.46Z" class="cls-5"/><circle cx="31.46" cy="22.77" r="1.41" class="cls-6"/><circle cx="36.83" cy="22.77" r="1.41" class="cls-6"/><circle cx="42.19" cy="22.77" r="1.41" class="cls-6"/><rect width="48.28" height="28.67" x="46.07" y="32.08" class="cls-7" rx="2.99"/><rect width="38.12" height="7.73" x="51.3" y="47.68" class="cls-6" rx="3.87"/><rect width="38.12" height="7.73" x="51.3" y="37.28" class="cls-6" rx="3.87"/><rect width="28.47" height=".96" x="55.91" y="51.06" class="cls-8" rx=".48"/><rect width="28.47" height=".96" x="55.91" y="40.67" class="cls-8" rx=".48"/><path d="M47.39,111.62h44a3.79,3.79,0,0,1,3.79,3.79v0a0,0,0,0,1,0,0H43.6a0,0,0,0,1,0,0v0A3.79,3.79,0,0,1,47.39,111.62Z" class="cls-9"/><rect width="10.09" height="1.81" x="64.09" y="83.37" class="cls-10" rx=".91"/><rect width="77.99" height="51.99" x="106.2" y="51.49" class="cls-10" rx="1.8" transform="translate(222.68 -67.7) rotate(90)"/><rect width="48.38" height="72.71" x="121" y="40.3" class="cls-6" transform="translate(290.38 153.31) rotate(-180)"/><rect width="17.77" height="40.13" x="136.53" y="39.14" class="cls-5" rx="1.62" transform="translate(204.62 -86.22) rotate(90)"/><rect width="15.62" height="11.06" x="148.97" y="74.12" class="cls-7" rx="2.53"/><rect width="15.62" height="11.06" x="148.97" y="89" class="cls-7" rx="2.53"/><rect width="15.9" height=".96" x="125.79" y="92.06" class="cls-7" rx=".48"/><rect width="15.9" height=".96" x="125.79" y="95.13" class="cls-7" rx=".48"/><rect width="15.9" height=".96" x="125.79" y="77.63" class="cls-7" rx=".48"/><rect width="8.9" height=".96" x="125.79" y="80.71" class="cls-7" rx=".48"/><rect width="48.29" height="3.77" x="121.05" y="40.3" class="cls-5"/><rect width="35.93" height="70" x="93.43" y="57.11" class="cls-9" rx="3.81"/><rect width="33.72" height="67.78" x="94.53" y="58.21" class="cls-7" rx="2.71"/><path d="M104.13,57.77h14.51a0,0,0,0,1,0,0v.34a2.07,2.07,0,0,1-2.07,2.07H106.2a2.07,2.07,0,0,1-2.07-2.07v-.34A0,0,0,0,1,104.13,57.77Z" class="cls-9"/><rect width="5.57" height=".64" x="107.9" y="58.3" class="cls-7" rx=".32"/><circle cx="114.81" cy="58.62" r=".43" class="cls-7"/><rect width="25.87" height="22.06" x="98.25" y="65.01" class="cls-6" rx="1.91"/><rect width="20.09" height="4.03" x="101.14" y="68.27" class="cls-11" rx="2.01"/><path d="M102.18,77.74a.38.38,0,0,1-.35-.39h0a.38.38,0,0,1,.35-.4h16.74a.38.38,0,0,1,.35.4h0a.38.38,0,0,1-.35.39Z" class="cls-7"/><path d="M115.48,79.45a.37.37,0,0,1,.35.39h0a.37.37,0,0,1-.35.39h-13.3a.37.37,0,0,1-.35-.39h0a.37.37,0,0,1,.35-.39Z" class="cls-7"/><path d="M118.92,81.94a.38.38,0,0,1,.35.39h0a.37.37,0,0,1-.35.39H102.18a.37.37,0,0,1-.35-.39h0a.38.38,0,0,1,.35-.39Z" class="cls-7"/><circle cx="123.09" cy="42.18" r=".71" class="cls-6"/><circle cx="126.26" cy="42.18" r=".71" class="cls-6"/><circle cx="129.43" cy="42.18" r=".71" class="cls-6"/><rect width="25.55" height="9.12" x="98.62" y="93.09" class="cls-5" rx="1"/><rect width="25.55" height="9.12" x="98.62" y="108.39" class="cls-5" rx="1"/></g></g></svg>