<svg xmlns="http://www.w3.org/2000/svg" xmlns:xlink="http://www.w3.org/1999/xlink" width="2709" height="699"><defs><linearGradient id="b" x1="71.226%" x2="62.734%" y1="17.827%" y2="55.878%"><stop offset="0%" stop-color="#B6BAC1"/><stop offset="100%" stop-color="#3C4553"/></linearGradient><path id="a" d="M1882.59623 2569.25631H1090.81c-52.39519.21034-101.971995-32.6959-134.527395-89.29861l-493.725536-853.44136c-32.761068-56.34891-44.971975-130.29876-33.131746-200.6475L605.586194 361.60971c11.529187-70.500019 45.853083-129.829354 93.143967-161.000652l714.020389-473.693569c47.13005-31.545569 102.15036-31.545569 149.2804 0l713.39527 473.693569c47.2548 31.191819 81.53414 90.523784 93.01894 161.000652l176.16087 1064.25913c11.78313 70.34888-.4221 144.26438-33.13175 200.6475l-493.72553 853.44136c-32.65502 56.90366-82.52571 89.85186-135.15252 89.29861z"/><linearGradient id="d" x1="72.507%" x2="39.212%" y1="33.039%" y2="83.725%"><stop offset="0%" stop-color="#FFF" stop-opacity="0"/><stop offset="100%" stop-color="#FFF"/></linearGradient><linearGradient id="e" x1="98.115%" x2="26.939%" y1="48.787%" y2="52.413%"><stop offset="0%" stop-color="#FFF" stop-opacity="0"/><stop offset="100%" stop-color="#FFF"/></linearGradient><linearGradient id="f" x1="98.115%" x2="26.939%" y1="48.787%" y2="52.413%"><stop offset="0%" stop-color="#FFF" stop-opacity="0"/><stop offset="100%" stop-color="#0B74DE"/></linearGradient></defs><g fill="none" fill-rule="evenodd" transform="translate(-36 -93)"><mask id="c" fill="#fff"><use xlink:href="#a"/></mask><use fill="url(#b)" opacity=".98" transform="rotate(87 1487 1136.256312)" xlink:href="#a"/><g mask="url(#c)" opacity=".177"><path fill="url(#d)" d="M718.070179 1307.99102l-79.052116-79.05985-186.289481-186.30773-79.052116-79.059853 79.052116-79.059857 697.126258-697.19452L963.398582.834695.763951 963.563587l717.306228 717.376463 186.456258-186.47451z" transform="rotate(-171 1300.154678 253.929555)"/><path fill="url(#e)" d="M497.270071 449.13752l986.031629-.048273-.01291 263.68674-986.031628.048273z" transform="rotate(144 1421.554507 388.55621)"/><path fill="url(#f)" d="M831.162911 564.901654l986.031629-.048273-.01291 263.68674-986.031628.048273z" opacity=".729" transform="rotate(144 1478.532806 258.274204)"/></g></g></svg>