<svg xmlns="http://www.w3.org/2000/svg" viewBox="0 0 126.74 138.65"><defs><style>.cls-1{fill:#edf2f6}.cls-2,.cls-7{fill:none}.cls-2{stroke:#fff;stroke-width:1.73px}.cls-2,.cls-6,.cls-7{stroke-linecap:round}.cls-2,.cls-3,.cls-5,.cls-6,.cls-7{stroke-miterlimit:10}.cls-3,.cls-6{fill:#3c4553}.cls-3,.cls-5{stroke:#2eea8a;stroke-width:2.84px}.cls-4,.cls-5{fill:#fff}.cls-6,.cls-7{stroke:#3c4553;stroke-width:1.42px}</style></defs><g id="Ebene_2" data-name="Ebene 2"><g id="Ebene_6" data-name="Ebene 6"><polygon points="62.79 138.65 3.04 78.9 81.94 0 116.23 34.3 89.35 61.18 114.84 86.67 62.79 138.65" class="cls-1"/><line x1="31.3" x2="54.73" y1="94.51" y2="94.51" class="cls-2"/><line x1="54.73" x2="47.06" y1="101.19" y2="101.19" class="cls-2"/><line x1="77.3" x2="100.24" y1="39.12" y2="39.12" class="cls-2"/><line x1="77.3" x2="90.85" y1="31.28" y2="31.28" class="cls-2"/><polygon points="125.32 100.59 75.15 100.59 75.15 83.36 65.56 77.05 75.15 68.14 75.15 50.42 125.32 50.42 125.32 100.59" class="cls-3"/><path d="M111.86,87.09h-5.09l-2-5.27H95.49l-1.91,5.27h-5l9-23.17h5Zm-8.61-9.17-3.19-8.6-3.13,8.6Z" class="cls-4"/><polygon points="1.42 30.96 51.59 30.96 51.59 48.19 61.18 54.5 51.59 63.41 51.59 81.13 1.42 81.13 1.42 30.96" class="cls-5"/><line x1="26.07" x2="26.07" y1="41.17" y2="49.89" class="cls-6"/><line x1="13" x2="38.84" y1="49.89" y2="49.89" class="cls-6"/><path d="M18.31,49.89s6.85,17.74,17.44,17.74" class="cls-7"/><path d="M34.64,49.89S27.79,67.63,17.2,67.63" class="cls-7"/></g></g></svg>