<svg xmlns="http://www.w3.org/2000/svg" viewBox="0 0 115.84 143.66"><defs><style>.cls-1{fill:#edf2f6}.cls-2,.cls-4{fill:none}.cls-2{stroke:#a2aeba;stroke-linecap:round;stroke-width:1.73px}.cls-2,.cls-3,.cls-4{stroke-miterlimit:10}.cls-3,.cls-6{fill:#3c4553}.cls-3,.cls-4{stroke:#2eea8a}.cls-3{stroke-width:2.84px}.cls-4{stroke-width:1.96px}.cls-5{fill:#fff}</style></defs><g id="Ebene_2" data-name="Ebene 2"><g id="Ebene_6" data-name="Ebene 6"><polygon points="61.91 143.66 0 81.75 81.75 0 102.72 20.97 74.87 48.83 115.84 89.8 61.91 143.66" class="cls-1"/><rect width="11.73" height="11.73" x="53.83" y="108.44" class="cls-2"/><rect width="11.73" height="7.17" x="76.62" y="13.87" class="cls-2"/><path d="M57.23,93.66c-32.36,0-49.44-30.31-49.44-30.31S26.35,33,57.23,33l1.33.05c32.35-.06,49.49,30.22,49.49,30.22s-18.5,30.34-49.37,30.4Z" class="cls-3"/><line x1="21.67" x2="30.36" y1="31.46" y2="40.15" class="cls-4"/><line x1="95.69" x2="86.99" y1="31.46" y2="40.15" class="cls-4"/><line x1="57.92" x2="57.92" y1="20.97" y2="33.26" class="cls-4"/><circle cx="57.92" cy="63.38" r="14.68" class="cls-5"/><circle cx="65.56" cy="54.57" r="5.87" class="cls-6"/></g></g></svg>